REM DIRINDEX 1\2,1\3,1\4
REM DIRNAME folder01,folder02,folder03,folder04
TITLE ""
FILE "DISC1Track15.mp3" MP3
  TRACK 01 AUDIO
    TITLE "0:"
    INDEX 01 00:00:00
  TRACK 02 AUDIO
    TITLE "4:cjc105_1158"
    INDEX 01 00:00:17
  TRACK 03 AUDIO
    TITLE "0:"
    INDEX 01 00:02:67
  TRACK 04 AUDIO
    TITLE "2:cjc105_1159"
    INDEX 01 00:03:39
  TRACK 05 AUDIO
    TITLE "3:cjc105_1160"
    INDEX 01 00:05:28
  TRACK 06 AUDIO
    TITLE "0:"
    INDEX 01 00:06:59
  TRACK 07 AUDIO
    TITLE "2:cjc105_1161"
    INDEX 01 00:06:73
  TRACK 08 AUDIO
    TITLE "3:cjc105_1162"
    INDEX 01 00:08:70
  TRACK 09 AUDIO
    TITLE "0:"
    INDEX 01 00:11:07
  TRACK 10 AUDIO
    TITLE "2:cjc105_1163"
    INDEX 01 00:11:19
  TRACK 11 AUDIO
    TITLE "3:cjc105_1164"
    INDEX 01 00:12:34
  TRACK 12 AUDIO
    TITLE "0:"
    INDEX 01 00:14:09
  TRACK 13 AUDIO
    TITLE "2:cjc105_1165"
    INDEX 01 00:14:21
  TRACK 14 AUDIO
    TITLE "3:cjc105_1166"
    INDEX 01 00:15:54
  TRACK 15 AUDIO
    TITLE "0:"
    INDEX 01 00:17:35
  TRACK 16 AUDIO
    TITLE "2:cjc105_1167"
    INDEX 01 00:17:49
  TRACK 17 AUDIO
    TITLE "3:cjc105_1168"
    INDEX 01 00:18:72
  TRACK 18 AUDIO
    TITLE "0:"
    INDEX 01 00:20:36
  TRACK 19 AUDIO
    TITLE "2:cjc105_1169"
    INDEX 01 00:20:45
  TRACK 20 AUDIO
    TITLE "3:cjc105_1170"
    INDEX 01 00:22:29
  TRACK 21 AUDIO
    TITLE "0:"
    INDEX 01 00:23:44
  TRACK 22 AUDIO
    TITLE "2:cjc105_1171"
    INDEX 01 00:23:65
  TRACK 23 AUDIO
    TITLE "3:cjc105_1172"
    INDEX 01 00:25:15
  TRACK 24 AUDIO
    TITLE "0:"
    INDEX 01 00:26:22
  TRACK 25 AUDIO
    TITLE "2:cjc105_1173"
    INDEX 01 00:26:42
  TRACK 26 AUDIO
    TITLE "3:cjc105_1174"
    INDEX 01 00:27:73
  TRACK 27 AUDIO
    TITLE "0:"
    INDEX 01 00:29:33
  TRACK 28 AUDIO
    TITLE "2:cjc105_1175"
    INDEX 01 00:29:44
  TRACK 29 AUDIO
    TITLE "3:cjc105_1176"
    INDEX 01 00:31:08
  TRACK 30 AUDIO
    TITLE "0:"
    INDEX 01 00:32:74
  TRACK 31 AUDIO
    TITLE "2:cjc105_1177"
    INDEX 01 00:33:17
  TRACK 32 AUDIO
    TITLE "3:cjc105_1178"
    INDEX 01 00:34:47
  TRACK 33 AUDIO
    TITLE "0:"
    INDEX 01 00:36:03
  TRACK 34 AUDIO
    TITLE "2:cjc105_1179"
    INDEX 01 00:36:17
  TRACK 35 AUDIO
    TITLE "3:cjc105_1180"
    INDEX 01 00:37:61
  TRACK 36 AUDIO
    TITLE "0:"
    INDEX 01 00:39:39
  TRACK 37 AUDIO
    TITLE "2:cjc105_1181"
    INDEX 01 00:39:54
  TRACK 38 AUDIO
    TITLE "3:cjc105_1182"
    INDEX 01 00:41:51
  TRACK 39 AUDIO
    TITLE "0:"
    INDEX 01 00:43:09
  TRACK 40 AUDIO
    TITLE "2:cjc105_1183"
    INDEX 01 00:43:25
  TRACK 41 AUDIO
    TITLE "3:cjc105_1184"
    INDEX 01 00:45:06
  TRACK 42 AUDIO
    TITLE "0:"
    INDEX 01 00:46:13
  TRACK 43 AUDIO
    TITLE "2:cjc105_1185"
    INDEX 01 00:46:35
  TRACK 44 AUDIO
    TITLE "3:cjc105_1186"
    INDEX 01 00:47:42
  TRACK 45 AUDIO
    TITLE "0:"
    INDEX 01 00:48:69
  TRACK 46 AUDIO
    TITLE "2:cjc105_1187"
    INDEX 01 00:49:14
  TRACK 47 AUDIO
    TITLE "3:cjc105_1188"
    INDEX 01 00:50:52
  TRACK 48 AUDIO
    TITLE "0:"
    INDEX 01 00:52:24
  TRACK 49 AUDIO
    TITLE "2:cjc105_1189"
    INDEX 01 00:52:37
  TRACK 50 AUDIO
    TITLE "3:cjc105_1190"
    INDEX 01 00:54:19
  TRACK 51 AUDIO
    TITLE "0:"
    INDEX 01 00:56:00
  TRACK 52 AUDIO
    TITLE "2:cjc105_1191"
    INDEX 01 00:56:14
  TRACK 53 AUDIO
    TITLE "3:cjc105_1192"
    INDEX 01 00:57:58
  TRACK 54 AUDIO
    TITLE "0:"
    INDEX 01 00:59:14
  TRACK 55 AUDIO
    TITLE "2:cjc105_1193"
    INDEX 01 00:59:36
  TRACK 56 AUDIO
    TITLE "3:cjc105_1194"
    INDEX 01 01:01:25
  TRACK 57 AUDIO
    TITLE "0:"
    INDEX 01 01:02:63
  TRACK 58 AUDIO
    TITLE "2:cjc105_1195"
    INDEX 01 01:03:06
  TRACK 59 AUDIO
    TITLE "3:cjc105_1196"
    INDEX 01 01:04:17
  TRACK 60 AUDIO
    TITLE "0:"
    INDEX 01 01:05:54
  TRACK 61 AUDIO
    TITLE "2:cjc105_1197"
    INDEX 01 01:05:69
  TRACK 62 AUDIO
    TITLE "3:cjc105_1198"
    INDEX 01 01:07:25
  TRACK 63 AUDIO
    TITLE "0:"
    INDEX 01 01:08:60
  TRACK 64 AUDIO
    TITLE "2:cjc105_1199"
    INDEX 01 01:08:74
  TRACK 65 AUDIO
    TITLE "3:cjc105_1200"
    INDEX 01 01:10:26
  TRACK 66 AUDIO
    TITLE "0:"
    INDEX 01 01:12:38
  TRACK 67 AUDIO
    TITLE "2:cjc105_1201"
    INDEX 01 01:12:54
  TRACK 68 AUDIO
    TITLE "3:cjc105_1202"
    INDEX 01 01:14:49
  TRACK 69 AUDIO
    TITLE "0:"
    INDEX 01 01:15:62
  TRACK 70 AUDIO
    TITLE "2:cjc105_1203"
    INDEX 01 01:15:74
  TRACK 71 AUDIO
    TITLE "3:cjc105_1204"
    INDEX 01 01:18:04
  TRACK 72 AUDIO
    TITLE "0:"
    INDEX 01 01:19:46
  TRACK 73 AUDIO
    TITLE "2:cjc105_1205"
    INDEX 01 01:19:62
  TRACK 74 AUDIO
    TITLE "3:cjc105_1206"
    INDEX 01 01:21:16
  TRACK 75 AUDIO
    TITLE "0:"
    INDEX 01 01:22:48
  TRACK 76 AUDIO
    TITLE "2:cjc105_1207"
    INDEX 01 01:22:60
  TRACK 77 AUDIO
    TITLE "3:cjc105_1208"
    INDEX 01 01:24:20
  TRACK 78 AUDIO
    TITLE "0:"
    INDEX 01 01:25:33
  TRACK 79 AUDIO
    TITLE "2:cjc105_1209"
    INDEX 01 01:25:47
  TRACK 80 AUDIO
    TITLE "3:cjc105_1210"
    INDEX 01 01:27:04
  TRACK 81 AUDIO
    TITLE "0:"
    INDEX 01 01:29:07
  TRACK 82 AUDIO
    TITLE "2:cjc105_1211"
    INDEX 01 01:29:19
  TRACK 83 AUDIO
    TITLE "3:cjc105_1212"
    INDEX 01 01:30:42
  TRACK 84 AUDIO
    TITLE "0:"
    INDEX 01 01:31:51
  TRACK 85 AUDIO
    TITLE "2:cjc105_1213"
    INDEX 01 01:31:69
  TRACK 86 AUDIO
    TITLE "3:cjc105_1214"
    INDEX 01 01:33:03
  TRACK 87 AUDIO
    TITLE "0:"
    INDEX 01 01:34:16
  TRACK 88 AUDIO
    TITLE "2:cjc105_1215"
    INDEX 01 01:34:32
  TRACK 89 AUDIO
    TITLE "3:cjc105_1216"
    INDEX 01 01:35:43
  TRACK 90 AUDIO
    TITLE "0:"
    INDEX 01 01:36:70
  TRACK 91 AUDIO
    TITLE "2:cjc105_1217"
    INDEX 01 01:37:13
  TRACK 92 AUDIO
    TITLE "3:cjc105_1218"
    INDEX 01 01:38:59
  TRACK 93 AUDIO
    TITLE "0:"
    INDEX 01 01:40:13
  TRACK 94 AUDIO
    TITLE "2:cjc105_1219"
    INDEX 01 01:40:29
  TRACK 95 AUDIO
    TITLE "3:cjc105_1220"
    INDEX 01 01:41:54
  TRACK 96 AUDIO
    TITLE "0:"
    INDEX 01 01:42:73
  TRACK 97 AUDIO
    TITLE "2:cjc105_1221"
    INDEX 01 01:43:11
  TRACK 98 AUDIO
    TITLE "3:cjc105_1222"
    INDEX 01 01:44:48
  TRACK 99 AUDIO
    TITLE "0:"
    INDEX 01 01:46:10
  TRACK 100 AUDIO
    TITLE "2:cjc105_1223"
    INDEX 01 01:46:29
  TRACK 101 AUDIO
    TITLE "3:cjc105_1224"
    INDEX 01 01:47:70
  TRACK 102 AUDIO
    TITLE "0:"
    INDEX 01 01:49:18
  TRACK 103 AUDIO
    TITLE "2:cjc105_1225"
    INDEX 01 01:49:37
  TRACK 104 AUDIO
    TITLE "3:cjc105_1226"
    INDEX 01 01:51:38
  TRACK 105 AUDIO
    TITLE "0:"
    INDEX 01 01:54:29
  TRACK 106 AUDIO
    TITLE "2:cjc105_1227"
    INDEX 01 01:54:42
  TRACK 107 AUDIO
    TITLE "3:cjc105_1228"
    INDEX 01 01:56:28
  TRACK 108 AUDIO
    TITLE "0:"
    INDEX 01 01:58:17
  TRACK 109 AUDIO
    TITLE "2:cjc105_1229"
    INDEX 01 01:58:38
  TRACK 110 AUDIO
    TITLE "3:cjc105_1230"
    INDEX 01 02:00:06
  TRACK 111 AUDIO
    TITLE "0:"
    INDEX 01 02:01:21
  TRACK 112 AUDIO
    TITLE "2:cjc105_1231"
    INDEX 01 02:01:37
  TRACK 113 AUDIO
    TITLE "3:cjc105_1232"
    INDEX 01 02:03:02
  TRACK 114 AUDIO
    TITLE "0:"
    INDEX 01 02:05:25
  TRACK 115 AUDIO
    TITLE "2:cjc105_1233"
    INDEX 01 02:05:40
  TRACK 116 AUDIO
    TITLE "3:cjc105_1234"
    INDEX 01 02:07:00
  TRACK 117 AUDIO
    TITLE "0:"
    INDEX 01 02:08:41
  TRACK 118 AUDIO
    TITLE "2:cjc105_1235"
    INDEX 01 02:08:54
  TRACK 119 AUDIO
    TITLE "3:cjc105_1236"
    INDEX 01 02:09:64
  TRACK 120 AUDIO
    TITLE "0:"
    INDEX 01 02:11:08
  TRACK 121 AUDIO
    TITLE "2:cjc105_1237"
    INDEX 01 02:11:19
  TRACK 122 AUDIO
    TITLE "3:cjc105_1238"
    INDEX 01 02:12:66
  TRACK 123 AUDIO
    TITLE "0:"
    INDEX 01 02:14:20
  TRACK 124 AUDIO
    TITLE "2:cjc105_1239"
    INDEX 01 02:14:41
  TRACK 125 AUDIO
    TITLE "3:cjc105_1240"
    INDEX 01 02:15:52
  TRACK 126 AUDIO
    TITLE "0:"
    INDEX 01 02:16:58
  TRACK 127 AUDIO
    TITLE "2:cjc105_1241"
    INDEX 01 02:16:72
  TRACK 128 AUDIO
    TITLE "3:cjc105_1242"
    INDEX 01 02:18:39
  TRACK 129 AUDIO
    TITLE "0:"
    INDEX 01 02:20:05
  TRACK 130 AUDIO
    TITLE "2:cjc105_1243"
    INDEX 01 02:20:20
  TRACK 131 AUDIO
    TITLE "3:cjc105_1244"
    INDEX 01 02:22:06
  TRACK 132 AUDIO
    TITLE "0:"
    INDEX 01 02:24:02
  TRACK 133 AUDIO
    TITLE "2:cjc105_1245"
    INDEX 01 02:24:20
  TRACK 134 AUDIO
    TITLE "3:cjc105_1246"
    INDEX 01 02:25:53
  TRACK 135 AUDIO
    TITLE "0:"
    INDEX 01 02:27:40
  TRACK 136 AUDIO
    TITLE "2:cjc105_1247"
    INDEX 01 02:27:52
  TRACK 137 AUDIO
    TITLE "3:cjc105_1248"
    INDEX 01 02:29:47
  TRACK 138 AUDIO
    TITLE "0:"
    INDEX 01 02:31:67
  TRACK 139 AUDIO
    TITLE "2:cjc105_1249"
    INDEX 01 02:32:06
  TRACK 140 AUDIO
    TITLE "3:cjc105_1250"
    INDEX 01 02:33:56
  TRACK 141 AUDIO
    TITLE "0:"
    INDEX 01 02:35:16
  TRACK 142 AUDIO
    TITLE "2:cjc105_1251"
    INDEX 01 02:35:30
  TRACK 143 AUDIO
    TITLE "3:cjc105_1252"
    INDEX 01 02:36:70
  TRACK 144 AUDIO
    TITLE "0:"
    INDEX 01 02:38:30
  TRACK 145 AUDIO
    TITLE "2:cjc105_1253"
    INDEX 01 02:38:50
  TRACK 146 AUDIO
    TITLE "3:cjc105_1254"
    INDEX 01 02:40:35
  TRACK 147 AUDIO
    TITLE "0:"
    INDEX 01 02:41:68
  TRACK 148 AUDIO
    TITLE "2:cjc105_1255"
    INDEX 01 02:42:10
  TRACK 149 AUDIO
    TITLE "3:cjc105_1256"
    INDEX 01 02:44:27
  TRACK 150 AUDIO
    TITLE "0:"
    INDEX 01 02:45:71
  TRACK 151 AUDIO
    TITLE "2:cjc105_1257"
    INDEX 01 02:46:12
  TRACK 152 AUDIO
    TITLE "3:cjc105_1258"
    INDEX 01 02:47:58
  TRACK 153 AUDIO
    TITLE "0:"
    INDEX 01 02:49:38
  TRACK 154 AUDIO
    TITLE "2:cjc105_1259"
    INDEX 01 02:49:55
  TRACK 155 AUDIO
    TITLE "3:cjc105_1260"
    INDEX 01 02:51:52
  TRACK 156 AUDIO
    TITLE "0:"
    INDEX 01 02:53:43
  TRACK 157 AUDIO
    TITLE "2:cjc105_1261"
    INDEX 01 02:53:55
  TRACK 158 AUDIO
    TITLE "3:cjc105_1262"
    INDEX 01 02:55:23
  TRACK 159 AUDIO
    TITLE "0:"
    INDEX 01 02:58:09
  TRACK 160 AUDIO
    TITLE "2:cjc105_1263"
    INDEX 01 02:58:27
  TRACK 161 AUDIO
    TITLE "3:cjc105_1264"
    INDEX 01 02:59:58
  TRACK 162 AUDIO
    TITLE "0:"
    INDEX 01 03:01:13
  TRACK 163 AUDIO
    TITLE "2:cjc105_1265"
    INDEX 01 03:01:25
  TRACK 164 AUDIO
    TITLE "3:cjc105_1266"
    INDEX 01 03:02:36
  TRACK 165 AUDIO
    TITLE "0:"
    INDEX 01 03:04:12
  TRACK 166 AUDIO
    TITLE "2:cjc105_1267"
    INDEX 01 03:04:27
  TRACK 167 AUDIO
    TITLE "3:cjc105_1268"
    INDEX 01 03:05:54
  TRACK 168 AUDIO
    TITLE "0:"
    INDEX 01 03:07:14
  TRACK 169 AUDIO
    TITLE "2:cjc105_1269"
    INDEX 01 03:07:24
  TRACK 170 AUDIO
    TITLE "3:cjc105_1270"
    INDEX 01 03:09:40
  TRACK 171 AUDIO
    TITLE "0:"
    INDEX 01 03:11:26
  TRACK 172 AUDIO
    TITLE "2:cjc105_1271"
    INDEX 01 03:11:37
  TRACK 173 AUDIO
    TITLE "3:cjc105_1272"
    INDEX 01 03:13:01
  TRACK 174 AUDIO
    TITLE "0:"
    INDEX 01 03:14:38
  TRACK 175 AUDIO
    TITLE "2:cjc105_1273"
    INDEX 01 03:14:53
  TRACK 176 AUDIO
    TITLE "3:cjc105_1274"
    INDEX 01 03:16:46
  TRACK 177 AUDIO
    TITLE "0:"
    INDEX 01 03:18:18
  TRACK 178 AUDIO
    TITLE "2:cjc105_1275"
    INDEX 01 03:18:31
  TRACK 179 AUDIO
    TITLE "3:cjc105_1276"
    INDEX 01 03:20:24
  TRACK 180 AUDIO
    TITLE "0:"
    INDEX 01 03:21:53
  TRACK 181 AUDIO
    TITLE "2:cjc105_1277"
    INDEX 01 03:21:67
  TRACK 182 AUDIO
    TITLE "3:cjc105_1278"
    INDEX 01 03:23:54
  TRACK 183 AUDIO
    TITLE "0:"
    INDEX 01 03:25:32
  TRACK 184 AUDIO
    TITLE "2:cjc105_1279"
    INDEX 01 03:25:45
  TRACK 185 AUDIO
    TITLE "3:cjc105_1280"
    INDEX 01 03:27:17
  TRACK 186 AUDIO
    TITLE "0:"
    INDEX 01 03:28:63
  TRACK 187 AUDIO
    TITLE "2:cjc105_1281"
    INDEX 01 03:29:00
  TRACK 188 AUDIO
    TITLE "3:cjc105_1282"
    INDEX 01 03:30:50
  TRACK 189 AUDIO
    TITLE "0:"
    INDEX 01 03:31:71
  TRACK 190 AUDIO
    TITLE "2:cjc105_1283"
    INDEX 01 03:32:16
  TRACK 191 AUDIO
    TITLE "3:cjc105_1284"
    INDEX 01 03:33:17
  TRACK 192 AUDIO
    TITLE "0:"
    INDEX 01 03:35:08
  TRACK 193 AUDIO
    TITLE "2:cjc105_1285"
    INDEX 01 03:35:22
  TRACK 194 AUDIO
    TITLE "3:cjc105_1286"
    INDEX 01 03:36:45
  TRACK 195 AUDIO
    TITLE "0:"
    INDEX 01 03:38:03
  TRACK 196 AUDIO
    TITLE "2:cjc105_1287"
    INDEX 01 03:38:20
  TRACK 197 AUDIO
    TITLE "3:cjc105_1288"
    INDEX 01 03:39:45
  TRACK 198 AUDIO
    TITLE "0:"
    INDEX 01 03:41:33
  TRACK 199 AUDIO
    TITLE "2:cjc105_1289"
    INDEX 01 03:41:48
  TRACK 200 AUDIO
    TITLE "3:cjc105_1290"
    INDEX 01 03:42:55
  TRACK 201 AUDIO
    TITLE "0:"
    INDEX 01 03:44:07
  TRACK 202 AUDIO
    TITLE "2:cjc105_1291"
    INDEX 01 03:44:17
  TRACK 203 AUDIO
    TITLE "3:cjc105_1292"
    INDEX 01 03:46:06
  TRACK 204 AUDIO
    TITLE "0:"
    INDEX 01 03:47:15
  TRACK 205 AUDIO
    TITLE "2:cjc105_1293"
    INDEX 01 03:47:29
  TRACK 206 AUDIO
    TITLE "3:cjc105_1294"
    INDEX 01 03:48:72
  TRACK 207 AUDIO
    TITLE "0:"
    INDEX 01 03:50:18
  TRACK 208 AUDIO
    TITLE "2:cjc105_1295"
    INDEX 01 03:50:33
  TRACK 209 AUDIO
    TITLE "3:cjc105_1296"
    INDEX 01 03:52:03
  TRACK 210 AUDIO
    TITLE "0:"
    INDEX 01 03:53:30
  TRACK 211 AUDIO
    TITLE "2:cjc105_1297"
    INDEX 01 03:53:45
  TRACK 212 AUDIO
    TITLE "3:cjc105_1298"
    INDEX 01 03:55:52
  TRACK 213 AUDIO
    TITLE "0:"
    INDEX 01 03:56:60
  TRACK 214 AUDIO
    TITLE "2:cjc105_1299"
    INDEX 01 03:56:73
  TRACK 215 AUDIO
    TITLE "3:cjc105_1300"
    INDEX 01 03:58:31
  TRACK 216 AUDIO
    TITLE "0:"
    INDEX 01 04:00:00
  TRACK 217 AUDIO
    TITLE "2:cjc105_1301"
    INDEX 01 04:00:08
  TRACK 218 AUDIO
    TITLE "3:cjc105_1302"
    INDEX 01 04:02:07
  TRACK 219 AUDIO
    TITLE "0:"
    INDEX 01 04:03:42
  TRACK 220 AUDIO
    TITLE "2:cjc105_1303"
    INDEX 01 04:03:60
  TRACK 221 AUDIO
    TITLE "3:cjc105_1304"
    INDEX 01 04:06:42
  TRACK 222 AUDIO
    TITLE "0:"
    INDEX 01 04:08:57
  TRACK 223 AUDIO
    TITLE "2:cjc105_1305"
    INDEX 01 04:08:74
  TRACK 224 AUDIO
    TITLE "3:cjc105_1306"
    INDEX 01 04:10:69
  TRACK 225 AUDIO
    TITLE "0:"
    INDEX 01 04:12:45
  TRACK 226 AUDIO
    TITLE "2:cjc105_1307"
    INDEX 01 04:12:60
  TRACK 227 AUDIO
    TITLE "3:cjc105_1308"
    INDEX 01 04:14:32
  TRACK 228 AUDIO
    TITLE "0:"
    INDEX 01 04:15:63
  TRACK 229 AUDIO
    TITLE "2:cjc105_1309"
    INDEX 01 04:16:03
  TRACK 230 AUDIO
    TITLE "3:cjc105_1310"
    INDEX 01 04:17:54
  TRACK 231 AUDIO
    TITLE "0:"
    INDEX 01 04:20:27
  TRACK 232 AUDIO
    TITLE "2:cjc105_1311"
    INDEX 01 04:20:40
  TRACK 233 AUDIO
    TITLE "3:cjc105_1312"
    INDEX 01 04:22:06
  TRACK 234 AUDIO
    TITLE "0:"
    INDEX 01 04:23:45
  TRACK 235 AUDIO
    TITLE "2:cjc105_1313"
    INDEX 01 04:23:58
  TRACK 236 AUDIO
    TITLE "3:cjc105_1314"
    INDEX 01 04:25:44
  TRACK 237 AUDIO
    TITLE "0:"
    INDEX 01 04:27:23
  TRACK 238 AUDIO
    TITLE "2:cjc105_1315"
    INDEX 01 04:27:39
  TRACK 239 AUDIO
    TITLE "3:cjc105_1316"
    INDEX 01 04:28:40
  TRACK 240 AUDIO
    TITLE "0:"
    INDEX 01 04:29:47
  TRACK 241 AUDIO
    TITLE "2:cjc105_1317"
    INDEX 01 04:29:55
  TRACK 242 AUDIO
    TITLE "3:cjc105_1318"
    INDEX 01 04:31:28
  TRACK 243 AUDIO
    TITLE "0:"
    INDEX 01 04:32:65
  TRACK 244 AUDIO
    TITLE "2:cjc105_1319"
    INDEX 01 04:33:00
  TRACK 245 AUDIO
    TITLE "3:cjc105_1320"
    INDEX 01 04:34:66
  TRACK 246 AUDIO
    TITLE "0:"
    INDEX 01 04:36:20
  TRACK 247 AUDIO
    TITLE "2:cjc105_1321"
    INDEX 01 04:36:34
  TRACK 248 AUDIO
    TITLE "3:cjc105_1322"
    INDEX 01 04:37:68
  TRACK 249 AUDIO
    TITLE "0:"
    INDEX 01 04:39:59
